<svg id="Layer_2" xmlns="http://www.w3.org/2000/svg" viewBox="0 0 400 75.6"><style>.st0{fill:#3266cc}.st1{fill:#ea9129}</style><path class="st0" d="M50.7 59.4v-24c0-9.6-8.5-15-24-15-14.5 0-23.4 7-23.4 13.3 0 3.4 2.8 5.9 6.5 5.9 2.7 0 4.2-1.5 6-3.1 2.2-2.2 4.8-4.7 10.8-4.7 4.2 0 8.7 1.4 8.7 5.4 0 3.6-2 4.5-5.8 4.9l-8.9 1C10.4 44.2 0 47 0 59.9c0 9.3 8.5 14.9 16.8 14.9 8.1 0 14.3-2.5 19.5-7.7.6 5 3.7 7.7 8.9 7.7 3.9 0 7-2.6 7-5.9 0-.9-.3-1.7-.5-2.6-.5-1.5-1-3.3-1-7zm-15.4-4.7c0 4.8-4.3 10-12.4 10-4.4 0-7.6-2.3-7.6-5.5 0-3.8 2.6-5.7 9-6.7l5.3-.7c1.6-.3 4-.8 5.7-1.9v4.8zM91.2 20.4A21 21 0 0 0 73.8 29v-1c0-4.8-2.5-7.5-7-7.5s-7 2.7-7 7.5v39.4c0 4.9 2.7 7.5 7.7 7.5s7.7-2.6 7.7-7.5V43.8c0-6.7 5.5-10.9 10.6-10.9 5.5 0 8.7 3.5 8.7 9.5v24.9c0 4.9 2.7 7.5 7.7 7.5s7.6-2.6 7.6-7.5V39.6c0-17.3-13-19.2-18.6-19.2zM126.5.8c-4.4 0-8 3.5-8 7.8s3.6 7.9 8 7.9 8-3.6 8-7.9c0-4.3-3.6-7.8-8-7.8zM126.5 20.4c-5 0-7.7 2.6-7.7 7.5v39.4c0 4.9 2.7 7.5 7.7 7.5s7.7-2.6 7.7-7.5V28c0-5-2.7-7.6-7.7-7.6zM172.6 20.4c-6 0-11 2.3-14.1 6.6V8.7c0-4.7-2.9-7.5-7.7-7.5s-7.6 2.8-7.6 7.5v59c0 4.7 2.3 7.1 7 7.1 4.4 0 6.9-2.5 6.9-7.1v-.8c2.6 5 8 7.9 15 7.9 10.7 0 23.2-7.2 23.2-27.5 0-13.4-7-26.9-22.7-26.9zM168.9 63c-10.4 0-11.2-11.6-11.2-15.1 0-4.1.9-7.8 2.4-10.5 2-3.3 4.8-5 8.6-5h.2c10.3 0 11 11.8 11 15.5.1 7.1-2.8 14.9-11 15zM209.8.8c-4.4 0-8 3.5-8 7.8s3.6 7.9 8 7.9 8-3.6 8-7.9c0-4.3-3.6-7.8-8-7.8zM209.8 20.4c-5 0-7.7 2.6-7.7 7.5v39.4c0 4.9 2.7 7.5 7.7 7.5s7.7-2.6 7.7-7.5V28c0-5-2.7-7.6-7.7-7.6zM253 41.8l-6-1.4c-4.7-1-7.5-1.7-7.5-4.7 0-3.4 5-4 8-4 4.9 0 7.1 2 9.1 3.8 1.6 1.4 3.2 2.8 5.8 2.8 4.3 0 6.5-3.4 6.5-6.7 0-6.9-11.7-11.2-22.6-11.2-11 0-22.1 5-22.1 16.3 0 10.3 7.7 13.6 15.3 15.4l9.3 2.3c4.7 1.1 7.3 1.7 7.3 4.8 0 2.9-3.4 4.8-8 4.8-6 0-8.7-2.7-11.1-5.1-1.9-1.9-3.7-3.7-6.6-3.7-4.6 0-6.2 3.5-6.2 6.4 0 7.3 11 13.2 24.4 13.2 11 0 22.8-5.5 22.8-17.4 0-10.2-9.9-13.7-18.4-15.6z"/><path class="st1" d="M283.7 57.4c-4.7 0-8.6 3.8-8.6 8.4s3.9 8.4 8.6 8.4 8.6-3.8 8.6-8.4c0-4.6-3.9-8.4-8.6-8.4zM321.6 32.4c5.6 0 7.3 2.3 9 4.6 1.3 2 2.5 3.7 5.8 3.7 4.4 0 7.2-2.5 7.2-6.5 0-6.5-8.9-13.8-21.6-13.8-17 0-27.6 10.8-27.6 28.2 0 16.4 10 26.2 26.7 26.2 15.3 0 22.5-9 22.5-15.2 0-3-2.4-5.9-6.5-5.9-3.8 0-5.3 2.2-6.8 4.3-1.8 2.4-3.6 4.9-8.8 4.9-7.4 0-11.8-5.3-11.8-14.2 0-15.2 9.2-16.4 12-16.4zM381.3 20.4a20 20 0 0 0-16 7V8.7c0-4.7-2.8-7.5-7.6-7.5S350 4 350 8.7v58.6c0 4.9 2.7 7.5 7.7 7.5s7.6-2.6 7.6-7.5V43.8c0-6.7 5.6-10.9 10.7-10.9 5.5 0 8.7 3.5 8.7 9.5v24.9c0 4.9 2.6 7.5 7.6 7.5s7.7-2.6 7.7-7.5V39.6c0-17.3-13-19.2-18.7-19.2z"/></svg>