<?xml version="1.0" encoding="UTF-8"?>
<svg width="238px" height="115px" viewBox="0 0 238 115" version="1.1" xmlns="http://www.w3.org/2000/svg" xmlns:xlink="http://www.w3.org/1999/xlink">
    <!-- Generator: Sketch 47.1 (45422) - http://www.bohemiancoding.com/sketch -->
    <title>anibislogo</title>
    <desc>Created with Sketch.</desc>
    <defs>
        <linearGradient x1="49.9946319%" y1="100.006503%" x2="49.9946319%" y2="0.0599710983%" id="linearGradient-1">
            <stop stop-color="#134EC2" offset="0%"></stop>
            <stop stop-color="#3266CC" offset="50.31%"></stop>
            <stop stop-color="#5C85D5" offset="100%"></stop>
        </linearGradient>
        <linearGradient x1="49.9032774%" y1="100.078814%" x2="49.9032774%" y2="0.0600144613%" id="linearGradient-2">
            <stop stop-color="#134EC2" offset="0%"></stop>
            <stop stop-color="#3266CC" offset="50.31%"></stop>
            <stop stop-color="#5C85D5" offset="100%"></stop>
        </linearGradient>
        <linearGradient x1="49.879397%" y1="99.9824121%" x2="49.879397%" y2="0%" id="linearGradient-3">
            <stop stop-color="#134EC2" offset="0%"></stop>
            <stop stop-color="#3266CC" offset="50.31%"></stop>
            <stop stop-color="#5C85D5" offset="100%"></stop>
        </linearGradient>
        <linearGradient x1="49.7493473%" y1="100.006508%" x2="49.7493473%" y2="-0.0122921186%" id="linearGradient-4">
            <stop stop-color="#134EC2" offset="0%"></stop>
            <stop stop-color="#3266CC" offset="50.31%"></stop>
            <stop stop-color="#5C85D5" offset="100%"></stop>
        </linearGradient>
        <linearGradient x1="50.078825%" y1="100.004805%" x2="50.078825%" y2="0.050186866%" id="linearGradient-5">
            <stop stop-color="#134EC2" offset="0%"></stop>
            <stop stop-color="#3266CC" offset="50.31%"></stop>
            <stop stop-color="#5C85D5" offset="100%"></stop>
        </linearGradient>
        <linearGradient x1="49.9874372%" y1="99.9824121%" x2="49.9874372%" y2="0%" id="linearGradient-6">
            <stop stop-color="#134EC2" offset="0%"></stop>
            <stop stop-color="#3266CC" offset="50.31%"></stop>
            <stop stop-color="#5C85D5" offset="100%"></stop>
        </linearGradient>
        <linearGradient x1="49.984375%" y1="100.006508%" x2="49.984375%" y2="-0.0122921186%" id="linearGradient-7">
            <stop stop-color="#134EC2" offset="0%"></stop>
            <stop stop-color="#3266CC" offset="50.31%"></stop>
            <stop stop-color="#5C85D5" offset="100%"></stop>
        </linearGradient>
        <linearGradient x1="50.0271186%" y1="100.078871%" x2="50.0271186%" y2="-0.012301013%" id="linearGradient-8">
            <stop stop-color="#134EC2" offset="0%"></stop>
            <stop stop-color="#3266CC" offset="50.31%"></stop>
            <stop stop-color="#5C85D5" offset="100%"></stop>
        </linearGradient>
        <linearGradient x1="49.8808411%" y1="100.065421%" x2="49.8808411%" y2="0.119158879%" id="linearGradient-9">
            <stop stop-color="#EA9129" offset="0%"></stop>
            <stop stop-color="#EB9E2A" offset="50.31%"></stop>
            <stop stop-color="#F0B056" offset="100%"></stop>
        </linearGradient>
        <linearGradient x1="49.9788446%" y1="100.006503%" x2="49.9788446%" y2="0.0599710983%" id="linearGradient-10">
            <stop stop-color="#EA9129" offset="0%"></stop>
            <stop stop-color="#EB9E2A" offset="50.31%"></stop>
            <stop stop-color="#F0B056" offset="100%"></stop>
        </linearGradient>
        <linearGradient x1="49.991193%" y1="100.058226%" x2="49.991193%" y2="0.0502136752%" id="linearGradient-11">
            <stop stop-color="#EA9129" offset="0%"></stop>
            <stop stop-color="#EB9E2A" offset="50.31%"></stop>
            <stop stop-color="#F0B056" offset="100%"></stop>
        </linearGradient>
    </defs>
    <g id="Layout_full" stroke="none" stroke-width="1" fill="none" fill-rule="evenodd">
        <g id="anibislogo" transform="translate(0.000000, 37.000000)">
            <path d="M29.1138224,32.3641203 L29.1138224,18.8023662 C29.1138224,13.3019503 24.2193914,10.2733813 15.3496712,10.2733813 C7.0314362,10.2733813 1.88424107,14.1704371 1.88424107,17.8002661 C1.88424107,19.6931218 3.5157181,21.1183308 5.65272322,21.1183308 C7.14632895,21.1183308 8.06547094,20.2498441 9.03057002,19.3590885 C10.3403474,18.1342995 11.8339531,16.7313594 15.3037141,16.7313594 C17.7164618,16.7313594 20.3130379,17.5330395 20.3130379,19.8267351 C20.3130379,21.8309353 19.1181533,22.3431197 16.9351911,22.5880775 L11.8569316,23.1447998 C5.99740147,23.7683287 0,25.4162266 0,32.6313469 C0,37.9313428 4.89443108,41.0935252 9.65099086,41.0935252 C14.3156364,41.0935252 17.9002902,39.6905851 20.8645231,36.7065538 C21.1862228,39.5347029 22.9785497,41.0935252 25.9657611,41.0935252 C28.217659,41.0935252 29.9640288,39.6237784 29.9640288,37.7754606 C29.9640288,37.2632761 29.8261575,36.8178983 29.6882862,36.3057138 C29.4125436,35.459496 29.1138224,34.4128582 29.1138224,32.3641203 L29.1138224,32.3641203 Z M20.3130379,29.6918535 C20.3130379,32.4309269 17.808376,35.3258826 13.1896875,35.3258826 C10.61609,35.3258826 8.80078453,34.0565559 8.80078453,32.2305069 C8.80078453,30.0926935 10.2943903,29.0015179 13.9709582,28.4670645 L17.0041268,28.0216867 L17.0730624,28.0216867 C17.9462473,27.8658045 19.3479388,27.6431156 20.3130379,27.0195866 L20.3130379,29.6918535 L20.3130379,29.6918535 Z" id="XMLID_100_" fill="url(#linearGradient-1)"></path>
            <path d="M53.8312314,10.2956663 C49.5677645,10.2956663 46.26238,11.8110457 43.4360368,15.0869396 L43.4360368,14.5520998 C43.4360368,11.8110457 41.951009,10.2733813 39.2683781,10.2733813 C36.5857472,10.2733813 35.1007194,11.7887607 35.1007194,14.5520998 L35.1007194,36.8370917 C35.1007194,39.6227157 36.6815555,41.0935252 39.6995152,41.0935252 C42.6935229,41.0935252 44.298311,39.6227157 44.298311,36.8370917 L44.298311,23.5106665 C44.298311,19.7222179 47.6036955,17.3822937 50.6456073,17.3822937 C53.9749438,17.3822937 55.8671566,19.343373 55.8671566,22.7306918 L55.8671566,36.8370917 C55.8671566,39.6227157 57.4479927,41.0935252 60.4659524,41.0935252 C63.4599601,41.0935252 65.0647482,39.6227157 65.0647482,36.8370917 L65.0647482,21.1484574 C65.0168441,11.3430609 57.18452,10.2956663 53.8312314,10.2956663 L53.8312314,10.2956663 Z" id="XMLID_99_" fill="url(#linearGradient-2)"></path>
            <ellipse id="XMLID_98_" fill="url(#linearGradient-3)" cx="74.9100719" cy="4.28057554" rx="4.70863309" ry="4.28057554"></ellipse>
            <path d="M74.8977779,10.2733813 C71.8242576,10.2733813 70.2014388,11.7441908 70.2014388,14.5520998 L70.2014388,36.8370917 C70.2014388,39.6227157 71.8242576,41.0935252 74.8977779,41.0935252 C77.9712982,41.0935252 79.618705,39.6227157 79.618705,36.8370917 L79.618705,14.5520998 C79.5941169,11.7441908 77.9712982,10.2733813 74.8977779,10.2733813 L74.8977779,10.2733813 Z" id="XMLID_97_" fill="url(#linearGradient-4)"></path>
            <path d="M102.523668,10.7505752 C99.0539187,10.7505752 96.2045878,12.0450322 94.4352452,14.4145467 L94.4352452,4.21247028 C94.4352452,1.57967636 92.780795,0 90.023378,0 C87.265961,0 85.6115108,1.57967636 85.6115108,4.21247028 L85.6115108,37.1004544 C85.6115108,39.7551883 86.9672408,41.0935252 89.6097654,41.0935252 C92.1833546,41.0935252 93.6080201,39.6893684 93.6080201,37.1004544 L93.6080201,36.6616554 C95.101621,39.4699689 98.2266936,41.0715852 102.270905,41.0715852 C108.406158,41.0715852 115.575442,37.0565745 115.575442,25.7136207 C115.598421,18.2759778 111.554209,10.7505752 102.523668,10.7505752 L102.523668,10.7505752 Z M100.409649,34.4237806 C94.4352452,34.4237806 93.9756757,27.9734355 93.9756757,25.99884 C93.9756757,23.7390252 94.4582237,21.65473 95.3543842,20.1847534 C96.457351,18.3417977 98.1347797,17.4203198 100.317735,17.4203198 L100.409649,17.4203198 C106.338095,17.4203198 106.797665,24.0023046 106.797665,26.02078 C106.797665,30.0138507 105.120236,34.3140808 100.409649,34.4237806 L100.409649,34.4237806 Z" id="XMLID_94_" fill="url(#linearGradient-5)"></path>
            <ellipse id="XMLID_93_" fill="url(#linearGradient-6)" cx="124.564748" cy="4.28057554" rx="4.70863309" ry="4.28057554"></ellipse>
            <path d="M124.564748,10.2733813 C121.499232,10.2733813 119.856115,11.7441908 119.856115,14.5520998 L119.856115,36.8370917 C119.856115,39.6227157 121.474708,41.0935252 124.564748,41.0935252 C127.630265,41.0935252 129.273381,39.6227157 129.273381,36.8370917 L129.273381,14.5520998 C129.248857,11.7441908 127.630265,10.2733813 124.564748,10.2733813 L124.564748,10.2733813 Z" id="XMLID_92_" fill="url(#linearGradient-7)"></path>
            <path d="M149.936227,22.405189 L146.320955,21.6246499 C143.567602,21.0448209 141.867705,20.6210996 141.867705,18.970817 C141.867705,17.0083187 144.836538,16.7184041 146.608261,16.7184041 C149.577094,16.7184041 150.917858,17.8557611 152.114968,18.8370103 C153.096598,19.6621516 154.006402,20.4203896 155.586587,20.4203896 C158.12446,20.4203896 159.465224,18.5247946 159.465224,16.6515008 C159.465224,12.7265042 152.450159,10.2733813 145.961822,10.2733813 C139.353774,10.2733813 132.697842,13.1279243 132.697842,19.5283449 C132.697842,25.3712376 137.318687,27.2222303 141.867705,28.2703828 L147.422296,29.5415465 C150.223534,30.1882789 151.779777,30.5450968 151.779777,32.306885 C151.779777,33.8902643 149.816516,35.0053202 146.967394,35.0053202 C143.423948,35.0053202 141.795879,33.444242 140.359346,32.0838739 C139.234063,31.0134202 138.180606,30.00987 136.456767,30.00987 C133.679472,30.00987 132.697842,31.9500672 132.697842,33.6226509 C132.697842,37.7483576 139.258005,41.0935252 147.326527,41.0935252 C153.886691,41.0935252 160.94964,38.015971 160.94964,31.2364314 C160.94964,25.4827432 155.059859,23.4979438 149.936227,22.405189 L149.936227,22.405189 Z" id="XMLID_91_" fill="url(#linearGradient-8)"></path>
            <circle id="XMLID_30_" fill="url(#linearGradient-9)" cx="167.370504" cy="36.3848921" r="4.70863309"></circle>
            <path d="M190.752756,17.0431239 C194.044863,17.0431239 195.039601,18.3792573 196.010654,19.6931218 C196.815917,20.7842974 197.573813,21.7863975 199.515919,21.7863975 C202.0975,21.7863975 203.755396,20.3389196 203.755396,18.0674928 C203.755396,14.3708571 198.521182,10.2733813 190.989598,10.2733813 C180.900118,10.2733813 174.647482,16.3973261 174.647482,26.2624444 C174.647482,35.5485715 180.568538,41.0935252 190.468545,41.0935252 C199.539603,41.0935252 203.755396,35.9494116 203.755396,32.4531958 C203.755396,30.8275668 202.334342,29.1351312 199.918551,29.1351312 C197.692234,29.1351312 196.768549,30.3599202 195.868548,31.5624402 C194.850127,32.9208425 193.784337,34.3460515 190.705387,34.3460515 C186.323805,34.3460515 183.718541,31.3397513 183.718541,26.2847133 C183.718541,17.7111906 189.09486,17.0431239 190.752756,17.0431239 L190.752756,17.0431239 Z" id="XMLID_29_" fill="url(#linearGradient-10)"></path>
            <path d="M226.796476,10.756318 C221.902431,10.756318 218.92762,12.7978233 217.2243,14.6637152 L217.2243,4.21472053 C217.2243,1.5805202 215.49699,0 212.642131,0 C209.763281,0 208.035971,1.5805202 208.035971,4.21472053 L208.035971,36.9007563 C208.035971,39.644715 209.619339,41.0935252 212.642131,41.0935252 C215.664923,41.0935252 217.2243,39.644715 217.2243,36.9007563 L217.2243,23.773658 C217.2243,20.0418742 220.534978,17.7369489 223.58176,17.7369489 C226.916428,17.7369489 228.811671,19.6686958 228.811671,23.0053496 L228.811671,36.9007563 C228.811671,39.644715 230.395038,41.0935252 233.417831,41.0935252 C236.416633,41.0935252 238,39.644715 238,36.9007563 L238,21.446781 C238,11.7880465 230.155134,10.756318 226.796476,10.756318 L226.796476,10.756318 Z" id="XMLID_28_" fill="url(#linearGradient-11)"></path>
        </g>
    </g>
</svg>